<?xml version="1.0" encoding="UTF-8" standalone="no"?>
<!-- Created with Inkscape (http://www.inkscape.org/) -->

<svg
   width="210mm"
   height="268mm"
   viewBox="0 0 210 268"
   version="1.1"
   id="svg4640"
   inkscape:version="1.2.2 (732a01da63, 2022-12-09)"
   sodipodi:docname="remusLogo.svg"
   xmlns:inkscape="http://www.inkscape.org/namespaces/inkscape"
   xmlns:sodipodi="http://sodipodi.sourceforge.net/DTD/sodipodi-0.dtd"
   xmlns="http://www.w3.org/2000/svg"
   xmlns:svg="http://www.w3.org/2000/svg">
  <sodipodi:namedview
     id="namedview4642"
     pagecolor="#ffffff"
     bordercolor="#000000"
     borderopacity="0.25"
     inkscape:showpageshadow="2"
     inkscape:pageopacity="0.0"
     inkscape:pagecheckerboard="0"
     inkscape:deskcolor="#d1d1d1"
     inkscape:document-units="mm"
     showgrid="false"
     inkscape:zoom="0.72515432"
     inkscape:cx="384.05618"
     inkscape:cy="519.19983"
     inkscape:window-width="1920"
     inkscape:window-height="1001"
     inkscape:window-x="-9"
     inkscape:window-y="-9"
     inkscape:window-maximized="1"
     inkscape:current-layer="layer1" />
  <defs
     id="defs4637" />
  <g
     inkscape:label="Vrstva 1"
     inkscape:groupmode="layer"
     id="layer1">
    <rect
       style="fill:#b3b3b3;stroke-width:3.32106"
       id="rect5111"
       width="210.52702"
       height="267.44595"
       x="-0.72972476"
       y="0.72972971" />
    <circle
       style="fill:#999999;stroke:#ffffff;stroke-width:2.77491"
       id="path5614"
       cx="11.491833"
       cy="8.5729074"
       r="36.612541" />
    <circle
       style="fill:#999999;stroke:#ffffff;stroke-width:2.77491"
       id="path5614-7"
       cx="185.7162"
       cy="55.094593"
       r="36.612541" />
    <circle
       style="fill:#999999;stroke:#ffffff;stroke-width:2.77491"
       id="path5614-6"
       cx="64.945946"
       cy="121.5"
       r="36.612541" />
    <circle
       style="fill:#999999;stroke:#ffffff;stroke-width:2.77491"
       id="path5614-4"
       cx="26.63513"
       cy="165.64865"
       r="36.612541"
       inkscape:label="path5614-4" />
    <circle
       style="fill:#999999;stroke:#ffffff;stroke-width:2.77491"
       id="path5614-9"
       cx="198.4865"
       cy="224.02702"
       r="36.612541" />
    <ellipse
       style="fill:#999999;stroke:#ffffff;stroke-width:0.912801"
       id="path5614-7-2"
       cx="40.905392"
       cy="246.68919"
       rx="12.043601"
       ry="12.043599"
       inkscape:transform-center-x="-45.972973"
       inkscape:transform-center-y="-43.783784" />
    <ellipse
       style="fill:#999999;stroke:#ffffff;stroke-width:0.912801"
       id="path5614-7-2-2"
       cx="141.56757"
       cy="191.91893"
       rx="12.043601"
       ry="12.043599"
       inkscape:transform-center-x="-45.972973"
       inkscape:transform-center-y="-43.783784" />
    <ellipse
       style="fill:#999999;stroke:#ffffff;stroke-width:0.912801"
       id="path5614-7-2-8"
       cx="64.945953"
       cy="43.054054"
       rx="12.043601"
       ry="12.043599"
       inkscape:transform-center-x="-45.972973"
       inkscape:transform-center-y="-43.783784" />
    <ellipse
       style="fill:#999999;stroke:#ffffff;stroke-width:0.912801"
       id="path5614-7-2-5"
       cx="160.58479"
       cy="57.648651"
       rx="12.043601"
       ry="12.043599"
       inkscape:transform-center-x="-45.972973"
       inkscape:transform-center-y="-43.783784" />
    <circle
       style="fill:#999999;stroke:#ffffff;stroke-width:0.474656"
       id="path5614-7-2-9"
       cx="199.78378"
       cy="10.054058"
       inkscape:transform-center-x="-23.905945"
       inkscape:transform-center-y="-22.767569"
       r="6.2626719" />
    <circle
       style="fill:#999999;stroke:#ffffff;stroke-width:0.474656"
       id="path5614-7-2-9-7"
       cx="195.56755"
       cy="154.7027"
       inkscape:transform-center-x="-23.905945"
       inkscape:transform-center-y="-22.767569"
       r="6.2626719" />
    <circle
       style="fill:#999999;stroke:#ffffff;stroke-width:0.474656"
       id="path5614-7-2-9-71"
       cx="53.999989"
       cy="107.27027"
       inkscape:transform-center-x="-23.905945"
       inkscape:transform-center-y="-22.767569"
       r="6.2626719" />
    <circle
       style="fill:#999999;stroke:#ffffff;stroke-width:0.474656"
       id="path5614-7-2-9-1"
       cx="194.10811"
       cy="213.08109"
       inkscape:transform-center-x="-23.905945"
       inkscape:transform-center-y="-22.767569"
       r="6.2626719" />
    <circle
       style="fill:#999999;stroke:#ffffff;stroke-width:0.556;stroke-dasharray:none"
       id="path5614-7-2-9-2"
       cx="123.97297"
       cy="110.10811"
       inkscape:transform-center-x="-12.872433"
       inkscape:transform-center-y="-12.25946"
       r="3.3722079" />
    <circle
       style="fill:#999999;stroke:#ffffff;stroke-width:0.474656"
       id="path5614-7-2-9-9"
       cx="135"
       cy="236.43245"
       inkscape:transform-center-x="-23.905945"
       inkscape:transform-center-y="-22.767569"
       r="6.2626719" />
    <circle
       style="fill:#999999;stroke:#ffffff;stroke-width:0.474656"
       id="path5614-7-2-9-77"
       cx="83.189186"
       cy="199.2162"
       inkscape:transform-center-x="-23.905945"
       inkscape:transform-center-y="-22.767569"
       r="6.2626719" />
    <circle
       style="fill:#999999;stroke:#ffffff;stroke-width:0.556;stroke-dasharray:none"
       id="path5614-7-2-9-2-0"
       cx="151.05405"
       cy="151.05406"
       inkscape:transform-center-x="-12.872433"
       inkscape:transform-center-y="-12.25946"
       r="3.3722079" />
    <circle
       style="fill:#999999;stroke:#ffffff;stroke-width:0.556;stroke-dasharray:none"
       id="path5614-7-2-9-2-6"
       cx="195.56755"
       cy="75.162163"
       inkscape:transform-center-x="-12.872433"
       inkscape:transform-center-y="-12.25946"
       r="3.3722079" />
    <circle
       style="fill:#999999;stroke:#ffffff;stroke-width:0.556;stroke-dasharray:none"
       id="path5614-7-2-9-2-8"
       cx="18.243237"
       cy="22.621618"
       inkscape:transform-center-x="-12.872433"
       inkscape:transform-center-y="-12.25946"
       r="3.3722079" />
    <circle
       style="fill:#999999;stroke:#ffffff;stroke-width:0.556;stroke-dasharray:none"
       id="path5614-7-2-9-2-5"
       cx="34.662178"
       cy="182.7973"
       inkscape:transform-center-x="-12.872433"
       inkscape:transform-center-y="-12.25946"
       r="3.3722079" />
    <path
       sodipodi:type="star"
       style="fill:#4d4d4d;stroke:#ffffff;stroke-width:1.65826;stroke-dasharray:none;stroke-opacity:1"
       id="path7503"
       inkscape:flatsided="false"
       sodipodi:sides="2"
       sodipodi:cx="-92.310806"
       sodipodi:cy="60.56757"
       sodipodi:r1="70.656715"
       sodipodi:r2="35.328362"
       sodipodi:arg1="0.45441"
       sodipodi:arg2="2.0252063"
       inkscape:rounded="0"
       inkscape:randomized="0"
       d="m -28.824323,91.581082 -78.993237,0.729733 -47.97973,-62.756757 78.993241,-0.729734 z"
       transform="matrix(2.0581954,0.01366351,-0.0104308,1.380293,297.67844,41.051549)" />
    <circle
       style="fill:#999999;stroke:#ffffff;stroke-width:0.556;stroke-dasharray:none"
       id="path5614-7-2-9-2-2"
       cx="18.972961"
       cy="155.43243"
       inkscape:transform-center-x="-12.872433"
       inkscape:transform-center-y="-12.25946"
       r="3.3722079" />
    <path
       sodipodi:type="star"
       style="fill:#ffffff;fill-opacity:1;stroke:#ffffff;stroke-width:0;stroke-dasharray:none;stroke-opacity:1"
       id="path7506"
       inkscape:flatsided="false"
       sodipodi:sides="5"
       sodipodi:cx="-89.756752"
       sodipodi:cy="105.44594"
       sodipodi:r1="10.945945"
       sodipodi:r2="5.4729738"
       sodipodi:arg1="0.64350111"
       sodipodi:arg2="1.2718196"
       inkscape:rounded="0"
       inkscape:randomized="0"
       d="m -80.999996,112.0135 -7.144733,-1.33738 -5.152164,5.12748 -0.935917,-7.20832 -6.46863,-3.31552 6.566309,-3.11761 1.154334,-7.176577 4.994116,5.281537 7.182043,-1.119852 -3.479771,6.381772 z"
       inkscape:transform-center-x="-2.9189253"
       transform="matrix(0.50259341,0,0,0.48035292,126.2597,61.909817)"
       inkscape:transform-center-y="0.36486486" />
    <path
       id="text7880"
       style="font-style:normal;font-variant:normal;font-weight:normal;font-stretch:normal;font-size:52.9167px;font-family:CountryBlueprint;-inkscape-font-specification:CountryBlueprint;fill:#4d4d4d;fill-opacity:1;stroke:#ffffff;stroke-width:1.1;stroke-dasharray:none;stroke-opacity:1"
       d="m 118.91316,100.15978 c -4.18579,0 -7.63951,1.03356 -10.36113,3.10058 -2.72162,2.04983 -4.08244,4.68533 -4.08244,7.9065 0,2.80775 0.81821,5.09013 2.45463,6.84713 1.65365,1.73974 4.1858,2.97139 7.59644,3.69486 1.68809,0.34451 3.28145,0.62873 4.78007,0.85266 1.51584,0.22393 2.91972,0.50815 4.21163,0.85266 1.70532,0.44786 2.97139,1.0766 3.79822,1.88619 0.84401,0.8096 1.26607,2.06706 1.26607,3.77238 0,1.98093 -0.88711,3.56568 -2.66134,4.75423 -1.757,1.18856 -4.22024,1.78284 -7.38973,1.78284 -0.53078,0 -1.07082,-0.0266 -1.61902,-0.076 0.31548,0.33951 0.63085,0.67923 0.94464,1.02009 1.01624,1.10512 1.99968,2.23967 2.98122,3.3755 1.59254,-0.1349 3.01416,-0.40969 4.25607,-0.83147 1.84312,-0.62012 3.45371,-1.48139 4.83175,-2.58382 1.25742,-1.0163 2.23069,-2.25654 2.91971,-3.72071 0.70625,-1.46413 1.05937,-2.94555 1.05937,-4.44417 0,-2.75607 -0.72347,-4.90068 -2.17041,-6.43371 -1.44694,-1.53307 -3.60016,-2.67857 -6.45955,-3.43649 -1.41249,-0.36173 -3.13504,-0.71485 -5.16765,-1.05936 -2.03257,-0.34451 -3.60012,-0.63735 -4.70255,-0.8785 -2.08428,-0.48232 -3.53984,-1.17995 -4.36666,-2.0929 -0.82682,-0.91295 -1.24024,-2.17041 -1.24024,-3.77238 0,-1.79145 0.82686,-3.25564 2.48047,-4.39249 1.67087,-1.13689 3.87574,-1.70533 6.61459,-1.70533 1.8086,0 3.58504,0.22018 5.33042,0.65371 0.15432,-0.32162 0.32419,-0.63589 0.50333,-0.94516 0.61648,-0.95472 1.25099,-1.89834 1.88877,-2.83911 0.093,-0.12773 0.18538,-0.25653 0.27802,-0.38498 -0.17706,-0.0428 -0.35294,-0.0863 -0.5333,-0.12765 -2.25654,-0.51676 -4.73704,-0.77514 -7.4414,-0.77514 z m -49.764409,0.69763 v 26.80612 c 0.264849,0.14406 0.529742,0.28739 0.793233,0.43149 2.993878,1.63733 1.554109,0.84136 4.322734,2.38642 v -6.44715 h 7.208862 l 8.090462,9.6175 c 1.11686,-0.44335 2.237765,-0.87816 3.355868,-1.31827 1.017499,-0.40525 1.232729,-0.49106 1.522387,-0.60513 l -7.930265,-9.21856 c 2.446011,-0.94737 4.366665,-2.3513 5.761922,-4.21162 1.39526,-1.87758 2.092896,-4.20305 2.092896,-6.97632 0,-2.04983 -0.39619,-3.73793 -1.188558,-5.06429 -0.775143,-1.34359 -1.860358,-2.45463 -3.255615,-3.33313 -1.240231,-0.77515 -2.635505,-1.30914 -4.185791,-1.60197 -1.55029,-0.31006 -3.488167,-0.46509 -5.813599,-0.46509 z m 60.400969,0.94464 c -0.27691,0.35806 -0.5376,0.72955 -0.80461,1.09348 -0.6054,0.89235 -1.20499,1.78932 -1.79575,2.69131 -0.0809,0.1373 -0.15842,0.27622 -0.23306,0.41651 2.1542,0.77931 3.9148,1.741 5.27099,2.88974 h 0.36174 v -6.04614 c -0.86865,-0.37842 -1.80187,-0.72659 -2.79931,-1.0449 z m -55.285002,3.44786 h 6.020304 c 1.378035,0 2.575212,0.10335 3.591512,0.31006 1.0163,0.18945 1.894806,0.53399 2.635498,1.03352 0.895722,0.58567 1.533068,1.30914 1.912028,2.17041 0.396186,0.84405 0.594279,1.81729 0.594279,2.91972 0,1.44694 -0.18948,2.64414 -0.568441,3.59151 -0.361732,0.93018 -0.930179,1.757 -1.705322,2.48047 -0.844045,0.77515 -1.868968,1.30914 -3.074748,1.60197 -1.20578,0.27561 -2.618279,0.41341 -4.237467,0.41341 h -5.167643 z m 29.972332,25.29561 v 6.40788 c 2.29099,1.0163 4.53891,1.78283 6.74377,2.2996 1.95593,0.45486 4.12616,0.70929 6.50917,0.76378 -0.50641,-0.57705 -1.01715,-1.15041 -1.53686,-1.71566 -0.77357,-0.84031 -1.55668,-1.67193 -2.32544,-2.51664 -0.24944,-0.27408 -0.49372,-0.55287 -0.73691,-0.83251 -0.0374,-0.0429 -0.1154,-0.13383 -0.20308,-0.2372 -0.44405,-0.12855 -0.89127,-0.26631 -1.34514,-0.42271 -2.54937,-0.8785 -4.7973,-2.12735 -6.74378,-3.74654 z m -35.088299,0.0558 v 8.72918 h 5.115967 v -5.89369 c -0.344727,-0.19429 -0.689842,-0.38786 -1.036113,-0.5793 -3.110429,-1.73514 -2.072918,-1.15993 -4.079854,-2.25619 z m 27.07535,3.19877 c -1.346556,0.5293 -0.770062,0.30099 -2.359029,0.93379 -0.849248,0.33428 -1.699651,0.66644 -2.549199,1.00046 l 3.025139,3.59616 h 6.640418 z" />
    <text
       xml:space="preserve"
       style="font-style:normal;font-variant:normal;font-weight:normal;font-stretch:normal;font-size:14.1111px;font-family:Century;-inkscape-font-specification:Century;fill:#4d4d4d;fill-opacity:1;stroke:#ffffff;stroke-width:0.1;stroke-dasharray:none;stroke-opacity:1"
       x="72.243248"
       y="162.72972"
       id="text8215"><tspan
         sodipodi:role="line"
         id="tspan8213"
         style="font-style:normal;font-variant:normal;font-weight:normal;font-stretch:normal;font-size:14.1111px;font-family:Century;-inkscape-font-specification:Century;stroke:#ffffff;stroke-width:0.1;stroke-dasharray:none;stroke-opacity:1"
         x="72.243248"
         y="162.72972">REMUS</tspan></text>
  </g>
</svg>
